<?xml version="1.0" encoding="UTF-8" standalone="no"?>
<svg
   viewBox="0 0 24 24"
   version="1.1"
   id="svg10"
   sodipodi:docname="pix.svg"
   inkscape:version="1.1 (ce6663b3b7, 2021-05-25)"
   width="24"
   height="24"
   xmlns:inkscape="http://www.inkscape.org/namespaces/inkscape"
   xmlns:sodipodi="http://sodipodi.sourceforge.net/DTD/sodipodi-0.dtd"
   xmlns="http://www.w3.org/2000/svg"
   xmlns:svg="http://www.w3.org/2000/svg">
  <sodipodi:namedview
     id="namedview12"
     pagecolor="#505050"
     bordercolor="#eeeeee"
     borderopacity="1"
     inkscape:pageshadow="0"
     inkscape:pageopacity="0"
     inkscape:pagecheckerboard="0"
     showgrid="false"
     inkscape:zoom="7.4218749"
     inkscape:cx="-10.442105"
     inkscape:cy="11.048421"
     inkscape:window-width="1366"
     inkscape:window-height="731"
     inkscape:window-x="0"
     inkscape:window-y="0"
     inkscape:window-maximized="1"
     inkscape:current-layer="svg10"
     width="24px" />
  <defs
     id="defs2" />
  <g
     id="g9"
     transform="matrix(0.0468815,0,0,0.04688262,2.3734e-5,2.4210368e-5)">
    <path
       d="m 393.072,391.897 c -20.082,0 -38.969,-7.81 -53.176,-22.02 L 262.827,292.81 c -5.375,-5.375 -14.773,-5.395 -20.17,0 l -76.784,76.786 c -14.209,14.207 -33.095,22.019 -53.179,22.019 h -9.247 l 97.521,97.52 c 30.375,30.375 79.614,30.375 109.988,0 l 97.239,-97.238 z m -105.049,74.327 c -8.55,8.53 -19.93,13.25 -32.05,13.25 h -0.02 c -12.12,0 -23.522,-4.721 -32.05,-13.25 l -56.855,-56.855 c 7.875,-4.613 15.165,-10.248 21.758,-16.84 l 63.948,-63.948 64.23,64.23 c 7.637,7.66 16.188,14.013 25.478,18.952 l -54.439,54.46 z M 310.958,22.78 c -30.374,-30.374 -79.613,-30.374 -109.988,0 l -97.52,97.52 h 9.247 c 20.082,0 38.97,7.834 53.178,22.02 l 76.784,76.785 c 5.57,5.592 14.622,5.57 20.17,0 l 77.069,-77.068 c 14.207,-14.187 33.094,-22.02 53.176,-22.02 h 15.123 z m 6.028,96.346 -64.23,64.23 -63.97,-63.97 c -6.593,-6.592 -13.86,-12.206 -21.736,-16.818 l 56.853,-56.877 c 17.69,-17.645 46.476,-17.668 64.121,0 l 54.44,54.461 c -9.292,4.961 -17.842,11.315 -25.479,18.974 z"
       id="path4"
       style="fill:#778899;fill-opacity:1;fill-rule:evenodd" />
    <path
       d="M 489.149,200.97 430.77,142.593 h -37.706 c -13.838,0 -27.394,5.635 -37.185,15.426 l -77.068,77.069 c -7.202,7.18 -16.623,10.77 -26.067,10.77 -9.443,0 -18.885,-3.59 -26.066,-10.77 l -76.785,-76.785 c -9.792,-9.814 -23.346,-15.427 -37.207,-15.427 H 80.876 L 22.78,200.97 c -30.374,30.375 -30.374,79.614 0,109.988 l 58.095,58.074 31.81,0.021 c 13.86,0 27.416,-5.635 37.208,-15.426 l 76.784,-76.764 c 13.925,-13.947 38.208,-13.924 52.133,-0.02 l 77.068,77.066 c 9.791,9.792 23.346,15.405 37.185,15.405 h 37.706 l 58.379,-58.356 c 30.374,-30.374 30.374,-79.613 0,-109.988 z m -362.19,129.724 c -3.763,3.786 -8.942,5.917 -14.273,5.917 H 94.302 l -48.59,-48.564 c -17.689,-17.69 -17.689,-46.476 0,-64.143 L 94.3,175.296 h 18.385 c 5.331,0 10.51,2.154 14.295,5.918 l 74.74,74.74 z m 339.257,-42.647 -48.848,48.87 h -24.305 c -5.309,0 -10.508,-2.155 -14.251,-5.92 l -75.023,-75.043 75.023,-75.023 c 3.743,-3.764 8.942,-5.918 14.252,-5.918 h 24.304 l 48.847,48.891 c 8.573,8.551 13.273,19.93 13.273,32.05 0,12.141 -4.7,23.52 -13.273,32.093 z"
       id="path6"
       style="fill:#778899;fill-opacity:1;fill-rule:evenodd" />
  </g>
</svg>
